<svg width="226" height="84" viewBox="0 0 226 84" fill="none" xmlns="http://www.w3.org/2000/svg">
<path id="Vector" d="M30.95 31.431L32.5 40.528L13.509 43.764L15.184 53.592L29.394 51.171L30.899 60.002L16.689 62.424L19.902 81.282L8.547 83.217L0.604004 36.602L30.95 31.431ZM43.602 35.152C41.61 35.491 39.874 35.195 38.394 34.263C36.951 33.279 36.082 31.923 35.788 30.197C35.486 28.426 35.857 26.86 36.9 25.497C37.98 24.083 39.517 23.207 41.509 22.867C43.457 22.535 45.152 22.862 46.595 23.846C48.075 24.778 48.966 26.129 49.268 27.9C49.562 29.627 49.169 31.197 48.089 32.611C47.045 33.973 45.55 34.82 43.602 35.152ZM49.902 38.041L56.216 75.094L44.861 77.029L38.548 39.976L49.902 38.041ZM79.609 71.655C76.377 72.206 73.405 72.143 70.694 71.466C67.982 70.789 65.733 69.623 63.948 67.969C62.155 66.27 60.967 64.24 60.382 61.88L71.604 59.968C71.956 61.229 72.731 62.167 73.929 62.783C75.127 63.399 76.501 63.575 78.05 63.311C79.467 63.069 80.506 62.619 81.168 61.96C81.867 61.248 82.141 60.45 81.99 59.565C81.809 58.502 81.124 57.822 79.934 57.523C78.737 57.181 76.846 56.911 74.261 56.713C71.5 56.546 69.177 56.281 67.293 55.919C65.401 55.513 63.689 54.688 62.157 53.446C60.616 52.16 59.631 50.255 59.201 47.732C58.839 45.607 59.087 43.583 59.943 41.66C60.837 39.686 62.326 37.997 64.41 36.594C66.538 35.184 69.174 34.211 72.317 33.675C76.965 32.883 80.814 33.412 83.862 35.262C86.955 37.103 89.025 39.894 90.072 43.633L79.58 45.421C79.184 44.167 78.435 43.247 77.333 42.66C76.275 42.066 74.972 41.901 73.422 42.165C72.094 42.392 71.121 42.831 70.503 43.483C69.878 44.09 69.641 44.837 69.792 45.722C69.973 46.785 70.662 47.487 71.859 47.83C73.101 48.165 74.962 48.394 77.443 48.518C80.308 48.759 82.665 49.086 84.512 49.5C86.351 49.87 88.045 50.72 89.593 52.051C91.177 53.33 92.211 55.249 92.692 57.809C93.062 59.979 92.774 62.032 91.829 63.97C90.92 65.856 89.398 67.482 87.262 68.848C85.17 70.206 82.619 71.142 79.609 71.655ZM110.501 56.21L126.571 53.472L128.166 62.834L99.414 67.734L97.875 58.703L110.101 37.419L94.828 40.021L93.233 30.658L121.521 25.838L123.059 34.869L110.501 56.21ZM157.058 57.911L143.122 44.297L145.769 59.835L134.414 61.77L126.041 12.632L137.396 10.697L142.024 37.856L150.678 20.87L164.689 18.483L152.451 39.7L171.135 55.513L157.058 57.911ZM174.203 12.898C172.211 13.238 170.475 12.941 168.995 12.009C167.552 11.025 166.683 9.67 166.389 7.943C166.087 6.172 166.458 4.60601 167.501 3.24401C168.582 1.83001 170.118 0.953009 172.11 0.614009C174.058 0.282009 175.753 0.608005 177.196 1.59201C178.676 2.52401 179.567 3.87601 179.869 5.64601C180.163 7.37301 179.77 8.943 178.69 10.357C177.646 11.719 176.151 12.566 174.203 12.898ZM180.503 15.788L186.817 52.841L175.462 54.775L169.149 17.723L180.503 15.788ZM225.623 27.574L214.069 29.543L216.083 41.362L205.326 43.195L203.312 31.376L191.758 33.344L190.027 23.185L201.581 21.216L199.555 9.33001L210.313 7.497L212.338 19.383L223.892 17.414L225.623 27.574Z" fill="#090C16"/>
</svg>
